# xmcd
#
# Track frame offsets:
#	200
#	12895
#	24300
#	40465
#	53027
#	69800
#	84335
#	97782
#	114700
#
# Disc length: 1654 seconds
#
# Revision: 1
# Processed by: cddbd v1.5.2PL0 Copyright (c) Steve Scherf et al.
# Submitted via: EasyCDDAExtractor 8.2.3.1
#
DISCID=5f067409
DTITLE=David Allan Coe - Standing Too Close To The Flame
DYEAR=1993
DGENRE=Country
TTITLE0=Lead Me Not Into Temptation
TTITLE1=Self Inflicted Wound
TTITLE2=A Place Like This
TTITLE3=I'm Not Begging You To Stay
TTITLE4=Desperate Man
TTITLE5=Standing Too Close To The Flame
TTITLE6=When A Fool Becomes A Man
TTITLE7=Revelation
TTITLE8=Did You Know Elvis
EXTD=
EXTT0=
EXTT1=
EXTT2=
EXTT3=
EXTT4=
EXTT5=
EXTT6=
EXTT7=
EXTT8=
PLAYORDER=
